<svg width="29" height="36" viewBox="0 0 29 36" fill="none" xmlns="http://www.w3.org/2000/svg">
<path d="M28.1 29.4V36H1.65V30.75L15.15 18C16.5833 16.6333 17.55 15.4667 18.05 14.5C18.55 13.5 18.8 12.5167 18.8 11.55C18.8 10.15 18.3167 9.08333 17.35 8.35C16.4167 7.58333 15.0333 7.2 13.2 7.2C11.6667 7.2 10.2833 7.5 9.05 8.1C7.81667 8.66667 6.78333 9.53333 5.95 10.7L0.05 6.9C1.41667 4.86667 3.3 3.28333 5.7 2.15C8.1 0.983332 10.85 0.399999 13.95 0.399999C16.55 0.399999 18.8167 0.833332 20.75 1.7C22.7167 2.53333 24.2333 3.73333 25.3 5.3C26.4 6.83333 26.95 8.65 26.95 10.75C26.95 12.65 26.55 14.4333 25.75 16.1C24.95 17.7667 23.4 19.6667 21.1 21.8L13.05 29.4H28.1Z" fill="#28E27B"/>
</svg>
