<svg width="29" height="36" viewBox="0 0 29 36" fill="none" xmlns="http://www.w3.org/2000/svg">
<path d="M19.3 14.25C22.3667 14.75 24.7167 15.9 26.35 17.7C27.9833 19.4667 28.8 21.6667 28.8 24.3C28.8 26.3333 28.2667 28.2167 27.2 29.95C26.1333 31.65 24.5 33.0167 22.3 34.05C20.1333 35.0833 17.4667 35.6 14.3 35.6C11.8333 35.6 9.4 35.2833 7 34.65C4.63333 33.9833 2.61667 33.05 0.95 31.85L4.1 25.65C5.43333 26.65 6.96667 27.4333 8.7 28C10.4667 28.5333 12.2667 28.8 14.1 28.8C16.1333 28.8 17.7333 28.4167 18.9 27.65C20.0667 26.85 20.65 25.7333 20.65 24.3C20.65 21.4333 18.4667 20 14.1 20H10.4V14.65L17.6 6.5H2.7V-2.38419e-06H27.2V5.25L19.3 14.25Z" fill="#28E27B"/>
</svg>
