<svg width="84" height="23" viewBox="0 0 84 23" fill="none" xmlns="http://www.w3.org/2000/svg">
<path d="M0.49 0.999999H10.03C12.31 0.999999 14.32 1.44 16.06 2.32C17.82 3.18 19.18 4.4 20.14 5.98C21.12 7.56 21.61 9.4 21.61 11.5C21.61 13.6 21.12 15.44 20.14 17.02C19.18 18.6 17.82 19.83 16.06 20.71C14.32 21.57 12.31 22 10.03 22H0.49V0.999999ZM9.79 18.01C11.89 18.01 13.56 17.43 14.8 16.27C16.06 15.09 16.69 13.5 16.69 11.5C16.69 9.5 16.06 7.92 14.8 6.76C13.56 5.58 11.89 4.99 9.79 4.99H5.35V18.01H9.79ZM35.4452 22.36C33.2652 22.36 31.2952 21.89 29.5352 20.95C27.7952 20.01 26.4252 18.72 25.4252 17.08C24.4452 15.42 23.9552 13.56 23.9552 11.5C23.9552 9.44 24.4452 7.59 25.4252 5.95C26.4252 4.29 27.7952 2.99 29.5352 2.05C31.2952 1.11 33.2652 0.64 35.4452 0.64C37.6252 0.64 39.5852 1.11 41.3252 2.05C43.0652 2.99 44.4352 4.29 45.4352 5.95C46.4352 7.59 46.9352 9.44 46.9352 11.5C46.9352 13.56 46.4352 15.42 45.4352 17.08C44.4352 18.72 43.0652 20.01 41.3252 20.95C39.5852 21.89 37.6252 22.36 35.4452 22.36ZM35.4452 18.22C36.6852 18.22 37.8052 17.94 38.8052 17.38C39.8052 16.8 40.5852 16 41.1452 14.98C41.7252 13.96 42.0152 12.8 42.0152 11.5C42.0152 10.2 41.7252 9.04 41.1452 8.02C40.5852 7 39.8052 6.21 38.8052 5.65C37.8052 5.07 36.6852 4.78 35.4452 4.78C34.2052 4.78 33.0852 5.07 32.0852 5.65C31.0852 6.21 30.2952 7 29.7152 8.02C29.1552 9.04 28.8752 10.2 28.8752 11.5C28.8752 12.8 29.1552 13.96 29.7152 14.98C30.2952 16 31.0852 16.8 32.0852 17.38C33.0852 17.94 34.2052 18.22 35.4452 18.22ZM69.6977 22L69.6677 9.4L63.4877 19.78H61.2977L55.1477 9.67V22H50.5877V0.999999H54.6077L62.4677 14.05L70.2077 0.999999H74.1977L74.2577 22H69.6977ZM80.68 22.24C79.86 22.24 79.17 21.96 78.61 21.4C78.05 20.84 77.77 20.14 77.77 19.3C77.77 18.44 78.05 17.75 78.61 17.23C79.17 16.69 79.86 16.42 80.68 16.42C81.5 16.42 82.19 16.69 82.75 17.23C83.31 17.75 83.59 18.44 83.59 19.3C83.59 20.14 83.31 20.84 82.75 21.4C82.19 21.96 81.5 22.24 80.68 22.24Z" fill="white"/>
</svg>
