<svg width="47" height="47" viewBox="0 0 47 47" fill="none" xmlns="http://www.w3.org/2000/svg">
<circle cx="23.5" cy="23.5" r="23.5" fill="white"/>
<path d="M28.0448 13H17.9552C14.6714 13 12 15.6714 12 18.9552V29.0449C12 32.3285 14.6714 35 17.9552 35H28.0449C31.3285 35 34 32.3285 34 29.0449V18.9552C34 15.6714 31.3285 13 28.0448 13V13ZM32.7102 29.0449C32.7102 31.6173 30.6173 33.7102 28.0448 33.7102H17.9552C15.3826 33.7102 13.2897 31.6173 13.2897 29.0449V18.9552C13.2897 16.3826 15.3826 14.2897 17.9552 14.2897H28.0449C30.6173 14.2897 32.7102 16.3826 32.7102 18.9552V29.0449Z" fill="#FF7474"/>
<path d="M22.9998 17.9845C19.6828 17.9845 16.9844 20.683 16.9844 23.9999C16.9844 27.3169 19.6828 30.0154 22.9998 30.0154C26.3168 30.0154 29.0153 27.3169 29.0153 23.9999C29.0153 20.683 26.3168 17.9845 22.9998 17.9845ZM22.9998 28.7257C20.3942 28.7257 18.2741 26.6058 18.2741 23.9999C18.2741 21.3943 20.3942 19.2742 22.9998 19.2742C25.6056 19.2742 27.7255 21.3943 27.7255 23.9999C27.7255 26.6058 25.6056 28.7257 22.9998 28.7257Z" fill="#FF7474"/>
<path d="M29.1593 15.8481C28.1791 15.8481 27.3818 16.6456 27.3818 17.6256C27.3818 18.6059 28.1791 19.4033 29.1593 19.4033C30.1396 19.4033 30.937 18.6059 30.937 17.6256C30.937 16.6454 30.1396 15.8481 29.1593 15.8481ZM29.1593 18.1134C28.8904 18.1134 28.6716 17.8945 28.6716 17.6256C28.6716 17.3566 28.8904 17.1379 29.1593 17.1379C29.4284 17.1379 29.6473 17.3566 29.6473 17.6256C29.6473 17.8945 29.4284 18.1134 29.1593 18.1134Z" fill="#FF7474"/>
</svg>
