<svg width="113" height="37" viewBox="0 0 113 37" fill="none" xmlns="http://www.w3.org/2000/svg">
<path d="M2.49 8H12.03C14.31 8 16.32 8.44 18.06 9.32C19.82 10.18 21.18 11.4 22.14 12.98C23.12 14.56 23.61 16.4 23.61 18.5C23.61 20.6 23.12 22.44 22.14 24.02C21.18 25.6 19.82 26.83 18.06 27.71C16.32 28.57 14.31 29 12.03 29H2.49V8ZM11.79 25.01C13.89 25.01 15.56 24.43 16.8 23.27C18.06 22.09 18.69 20.5 18.69 18.5C18.69 16.5 18.06 14.92 16.8 13.76C15.56 12.58 13.89 11.99 11.79 11.99H7.35V25.01H11.79ZM37.4452 29.36C35.2652 29.36 33.2952 28.89 31.5352 27.95C29.7952 27.01 28.4252 25.72 27.4252 24.08C26.4452 22.42 25.9552 20.56 25.9552 18.5C25.9552 16.44 26.4452 14.59 27.4252 12.95C28.4252 11.29 29.7952 9.99 31.5352 9.05C33.2952 8.11 35.2652 7.64 37.4452 7.64C39.6252 7.64 41.5852 8.11 43.3252 9.05C45.0652 9.99 46.4352 11.29 47.4352 12.95C48.4352 14.59 48.9352 16.44 48.9352 18.5C48.9352 20.56 48.4352 22.42 47.4352 24.08C46.4352 25.72 45.0652 27.01 43.3252 27.95C41.5852 28.89 39.6252 29.36 37.4452 29.36ZM37.4452 25.22C38.6852 25.22 39.8052 24.94 40.8052 24.38C41.8052 23.8 42.5852 23 43.1452 21.98C43.7252 20.96 44.0152 19.8 44.0152 18.5C44.0152 17.2 43.7252 16.04 43.1452 15.02C42.5852 14 41.8052 13.21 40.8052 12.65C39.8052 12.07 38.6852 11.78 37.4452 11.78C36.2052 11.78 35.0852 12.07 34.0852 12.65C33.0852 13.21 32.2952 14 31.7152 15.02C31.1552 16.04 30.8752 17.2 30.8752 18.5C30.8752 19.8 31.1552 20.96 31.7152 21.98C32.2952 23 33.0852 23.8 34.0852 24.38C35.0852 24.94 36.2052 25.22 37.4452 25.22ZM71.6977 29L71.6677 16.4L65.4877 26.78H63.2977L57.1477 16.67V29H52.5877V8H56.6077L64.4677 21.05L72.2077 8H76.1977L76.2577 29H71.6977ZM82.68 29.24C81.86 29.24 81.17 28.96 80.61 28.4C80.05 27.84 79.77 27.14 79.77 26.3C79.77 25.44 80.05 24.75 80.61 24.23C81.17 23.69 81.86 23.42 82.68 23.42C83.5 23.42 84.19 23.69 84.75 24.23C85.31 24.75 85.59 25.44 85.59 26.3C85.59 27.14 85.31 27.84 84.75 28.4C84.19 28.96 83.5 29.24 82.68 29.24Z" fill="white"/>
<path d="M89.5 28.925L89.5 24.875L107 24.875L107 28.925L89.5 28.925ZM100.125 14.3469L102.575 16.6969L107 16.6969L107 20.7219L89.5 20.7219L89.5 16.6969L97.675 16.6969L89.5 8.94687L89.5 4.44687L97.3 11.6969L107 4.02187L107 8.74687L100.125 14.3469Z" fill="#FF7474"/>
</svg>
