<svg width="47" height="47" viewBox="0 0 47 47" fill="none" xmlns="http://www.w3.org/2000/svg">
<circle cx="23.5" cy="23.5" r="23.5" fill="white"/>
<g clip-path="url(#clip0)">
<path d="M32.8363 13.8816C32.6459 13.6685 32.3456 13.6113 32.0968 13.7201L11.386 22.7864C11.1566 22.8869 11.0057 23.1117 11.0002 23.3626C10.9946 23.6131 11.1351 23.8443 11.3602 23.9551L16.3055 26.3871L17.5378 33.7803C17.5778 34.0609 17.7982 34.2865 18.0852 34.3273C18.2915 34.3569 18.4964 34.2843 18.6382 34.1382L22.5423 30.2341L28.1136 34.2138C28.2924 34.341 28.5227 34.369 28.7255 34.2886C28.9287 34.2083 29.0774 34.0299 29.1204 33.8155L32.9875 14.4368C33.0258 14.2447 32.9764 14.0389 32.8363 13.8816ZM16.8159 25.2016L13.1744 23.4107L27.5611 17.1128L16.8159 25.2016ZM18.8329 27.1176L18.2335 30.1147L17.5868 26.2346L25.4917 20.2839L19.0086 26.7889C18.9175 26.88 18.8569 26.9986 18.8329 27.1176ZM19.2252 31.7281L19.9015 28.3478L21.4789 29.4744L19.2252 31.7281ZM28.0513 32.5849L20.4575 27.161L31.3057 16.2767L28.0513 32.5849Z" fill="#FF7474"/>
</g>
<defs>
<clipPath id="clip0">
<rect width="22" height="22" fill="white" transform="translate(11 13)"/>
</clipPath>
</defs>
</svg>
